<?xml version="1.0" encoding="UTF-8" standalone="no"?>
<svg
   xmlns:dc="http://purl.org/dc/elements/1.1/"
   xmlns:cc="http://creativecommons.org/ns#"
   xmlns:rdf="http://www.w3.org/1999/02/22-rdf-syntax-ns#"
   xmlns:svg="http://www.w3.org/2000/svg"
   xmlns="http://www.w3.org/2000/svg"
   xmlns:sodipodi="http://sodipodi.sourceforge.net/DTD/sodipodi-0.dtd"
   xmlns:inkscape="http://www.inkscape.org/namespaces/inkscape"
   version="1.1"
   width="311.811"
   height="311.811"
   id="svg14"
   viewBox="0 0 311.811 311.811"
   sodipodi:docname="Vetor (467).cdr">
  <metadata
     id="metadata20">
    <rdf:RDF>
      <cc:Work
         rdf:about="">
        <dc:format>image/svg+xml</dc:format>
        <dc:type
           rdf:resource="http://purl.org/dc/dcmitype/StillImage" />
      </cc:Work>
    </rdf:RDF>
  </metadata>
  <defs
     id="defs18" />
  <sodipodi:namedview
     pagecolor="#ffffff"
     bordercolor="#666666"
     borderopacity="1"
     objecttolerance="10"
     gridtolerance="10"
     guidetolerance="10"
     inkscape:pageopacity="0"
     inkscape:pageshadow="2"
     inkscape:window-width="640"
     inkscape:window-height="480"
     id="namedview16" />
  <g
     id="Layer1000">
    <path
       d="m 66.0956,122.6045 c -5.3626,0 -9.7365,4.3534 -9.7365,9.7359 0,5.3784 4.3739,9.7307 9.7365,9.7307 5.3989,0 9.7488,-4.3523 9.7488,-9.7307 0,-5.3825 -4.3499,-9.7359 -9.7488,-9.7359 z"
       style="fill:#102a83;fill-rule:evenodd"
       id="path2" />
    <defs
       id="defs9">
      <radialGradient
         id="grad1"
         cx="0.38999999"
         cy="0.38999999"
         r="0.66000003">
        <stop
           offset="0%"
           stop-color="#000000"
           stop-opacity="1.0000"
           id="stop4" />
        <stop
           offset="100%"
           stop-color="#102a83"
           stop-opacity="1.0000"
           id="stop6" />
      </radialGradient>
    </defs>
    <path
       d="m 292.9083,185.5385 c 0,-9.1821 -1.4599,-17.3071 -5.5294,-22.7763 4.3358,-5.4773 5.8724,-13.7837 5.8724,-23.2404 l 8.9539,-45.7721 c 0,-16.4964 10.5268,-29.8646 -5.9655,-29.8646 h -13.9266 c -16.5005,0 -29.8652,13.3682 -29.8652,29.8646 l -13.9594,26.7691 c -7.827,-7.8206 -18.4773,-14.6653 -31.2647,-21.1548 0.0222,-0.1551 0.0363,-0.2962 0.0685,-0.4496 -16.6375,-0.5666 -9.7143,-5.719 0.7604,-5.5376 4.001,-25.7347 12.9695,-46.6618 -16.6457,-42.1281 -25.5509,3.9021 -70.9361,15.6107 -94.8819,33.7608 -28.0985,4.9329 -90.2294,37.2818 -90.2294,68.7257 0,2.5493 35.5936,51.5667 84.851,61.7744 19.7856,22.5246 74.2838,36.9938 103.2592,41.4122 32.8171,5.0301 18.2952,-21.1928 15.6253,-50.5633 -15.7928,5.3544 -8.6881,-2.8923 0.8734,-6.1552 7.1972,-3.8717 13.679,-7.3933 19.2547,-10.9547 l 21.9614,42.0842 c 0,16.4841 13.3652,29.8505 29.8575,29.8505 h 13.9272 c 16.4923,0 5.9732,-13.3664 5.9732,-29.8505 z M 64.0164,147.2739 v 0 c -8.2403,0 -14.9335,-6.6791 -14.9335,-14.9335 0,-8.2379 6.6932,-14.9329 14.9335,-14.9329 8.2479,0 14.9276,6.695 14.9276,14.9329 0,8.2544 -6.6797,14.9335 -14.9276,14.9335 z"
       style="fill:url(#grad1)"
       id="path11" />
  </g>
</svg>
